# xmcd
#
# Track frame offsets: 
#        150
#        25207
#        56100
#        105800
#        151687
#        176480
#        199670
#
# Disc length: 2870 seconds
#
# Revision: 3
# Processed by: cddbd v1.5PL3 Copyright (c) Steve Scherf et al.
# Submitted via: ExactAudioCopy v0.95a4
#
DISCID=4a0b3407
DTITLE=Tony O'Connor - Hidden Forest
DYEAR=1993
DGENRE=Relaxation
TTITLE0=Hidden Forest
TTITLE1=I Wonder
TTITLE2=Inside Outside
TTITLE3=Silently
TTITLE4=New Directions
TTITLE5=Sharing Secrets
TTITLE6=Remember
EXTD=
EXTT0=
EXTT1=
EXTT2=
EXTT3=
EXTT4=
EXTT5=
EXTT6=
PLAYORDER=
